<mxfile host="app.diagrams.net" modified="2024-01-27T12:34:19.213Z" agent="Mozilla/5.0 (Windows NT 10.0; Win64; x64) AppleWebKit/537.36 (KHTML, like Gecko) Chrome/120.0.0.0 Safari/537.36 Edg/120.0.0.0" etag="DXw6S4NQYt6bRwb3XpiT" version="23.0.2" type="github">
  <diagram name="Page-1" id="bdS_hWGNOkwyjjd48Gf8">
    <mxGraphModel dx="2084" dy="1070" grid="0" gridSize="10" guides="1" tooltips="1" connect="1" arrows="1" fold="1" page="1" pageScale="1" pageWidth="827" pageHeight="1169" math="0" shadow="0">
      <root>
        <mxCell id="0" />
        <mxCell id="1" parent="0" />
        <mxCell id="d3ICCTbF8nOoWMCPjpBj-5" value="&lt;br&gt;" style="rounded=0;whiteSpace=wrap;html=1;" parent="1" vertex="1">
          <mxGeometry x="58" y="24" width="710" height="1110" as="geometry" />
        </mxCell>
        <mxCell id="tNhVOZxFXTZ1Ly7ThZuJ-10" value="" style="rounded=0;whiteSpace=wrap;html=1;fontSize=11;fillColor=#e1d5e7;strokeColor=#9673a6;" vertex="1" parent="1">
          <mxGeometry x="580" y="24" width="189" height="1110" as="geometry" />
        </mxCell>
        <mxCell id="tNhVOZxFXTZ1Ly7ThZuJ-9" value="" style="rounded=0;whiteSpace=wrap;html=1;fontSize=11;fillColor=#f8cecc;strokeColor=#b85450;" vertex="1" parent="1">
          <mxGeometry x="337" y="579" width="243" height="555" as="geometry" />
        </mxCell>
        <mxCell id="tNhVOZxFXTZ1Ly7ThZuJ-6" value="" style="rounded=0;whiteSpace=wrap;html=1;fontSize=11;fillColor=#dae8fc;strokeColor=#6c8ebf;" vertex="1" parent="1">
          <mxGeometry x="58" y="24" width="279" height="1110" as="geometry" />
        </mxCell>
        <mxCell id="tNhVOZxFXTZ1Ly7ThZuJ-7" value="" style="rounded=0;whiteSpace=wrap;html=1;fontSize=11;fillColor=#d5e8d4;strokeColor=#82b366;" vertex="1" parent="1">
          <mxGeometry x="337" y="24" width="243" height="555" as="geometry" />
        </mxCell>
        <mxCell id="d3ICCTbF8nOoWMCPjpBj-6" value="" style="endArrow=none;dashed=1;html=1;rounded=0;entryX=0.394;entryY=-0.001;entryDx=0;entryDy=0;entryPerimeter=0;exitX=0.391;exitY=0.999;exitDx=0;exitDy=0;exitPerimeter=0;" parent="1" source="d3ICCTbF8nOoWMCPjpBj-5" target="d3ICCTbF8nOoWMCPjpBj-5" edge="1">
          <mxGeometry width="50" height="50" relative="1" as="geometry">
            <mxPoint x="338" y="1134" as="sourcePoint" />
            <mxPoint x="338" y="21" as="targetPoint" />
          </mxGeometry>
        </mxCell>
        <mxCell id="d3ICCTbF8nOoWMCPjpBj-12" value="Main Controller" style="whiteSpace=wrap;html=1;aspect=fixed;" parent="1" vertex="1">
          <mxGeometry x="428" y="544" width="70" height="70" as="geometry" />
        </mxCell>
        <mxCell id="d3ICCTbF8nOoWMCPjpBj-13" value="" style="endArrow=none;html=1;rounded=0;entryX=1;entryY=0.5;entryDx=0;entryDy=0;exitX=0;exitY=0.5;exitDx=0;exitDy=0;" parent="1" source="d3ICCTbF8nOoWMCPjpBj-12" target="d3ICCTbF8nOoWMCPjpBj-11" edge="1">
          <mxGeometry width="50" height="50" relative="1" as="geometry">
            <mxPoint x="478" y="584" as="sourcePoint" />
            <mxPoint x="528" y="534" as="targetPoint" />
          </mxGeometry>
        </mxCell>
        <mxCell id="d3ICCTbF8nOoWMCPjpBj-32" value="&lt;font style=&quot;font-size: 6px;&quot;&gt;USB to Micro USB&lt;/font&gt;" style="edgeLabel;html=1;align=center;verticalAlign=middle;resizable=0;points=[];" parent="d3ICCTbF8nOoWMCPjpBj-13" vertex="1" connectable="0">
          <mxGeometry x="0.082" y="1" relative="1" as="geometry">
            <mxPoint y="-2" as="offset" />
          </mxGeometry>
        </mxCell>
        <mxCell id="d3ICCTbF8nOoWMCPjpBj-15" value="Slave Controller" style="whiteSpace=wrap;html=1;aspect=fixed;" parent="1" vertex="1">
          <mxGeometry x="428" y="413" width="70" height="70" as="geometry" />
        </mxCell>
        <mxCell id="d3ICCTbF8nOoWMCPjpBj-16" value="Slave Controller" style="whiteSpace=wrap;html=1;aspect=fixed;" parent="1" vertex="1">
          <mxGeometry x="428" y="675" width="70" height="70" as="geometry" />
        </mxCell>
        <mxCell id="d3ICCTbF8nOoWMCPjpBj-24" value="" style="endArrow=none;html=1;rounded=0;exitX=0.5;exitY=0;exitDx=0;exitDy=0;entryX=0.5;entryY=1;entryDx=0;entryDy=0;" parent="1" source="d3ICCTbF8nOoWMCPjpBj-12" target="d3ICCTbF8nOoWMCPjpBj-15" edge="1">
          <mxGeometry width="50" height="50" relative="1" as="geometry">
            <mxPoint x="478" y="544" as="sourcePoint" />
            <mxPoint x="528" y="494" as="targetPoint" />
          </mxGeometry>
        </mxCell>
        <mxCell id="d3ICCTbF8nOoWMCPjpBj-41" value="&lt;font style=&quot;font-size: 6px;&quot;&gt;RX / TX&lt;/font&gt;" style="edgeLabel;html=1;align=center;verticalAlign=middle;resizable=0;points=[];" parent="d3ICCTbF8nOoWMCPjpBj-24" vertex="1" connectable="0">
          <mxGeometry x="0.0051" y="1" relative="1" as="geometry">
            <mxPoint as="offset" />
          </mxGeometry>
        </mxCell>
        <mxCell id="d3ICCTbF8nOoWMCPjpBj-25" value="" style="endArrow=none;html=1;rounded=0;exitX=0.5;exitY=0;exitDx=0;exitDy=0;entryX=0.5;entryY=1;entryDx=0;entryDy=0;" parent="1" source="d3ICCTbF8nOoWMCPjpBj-16" target="d3ICCTbF8nOoWMCPjpBj-12" edge="1">
          <mxGeometry width="50" height="50" relative="1" as="geometry">
            <mxPoint x="438" y="554" as="sourcePoint" />
            <mxPoint x="438" y="524" as="targetPoint" />
          </mxGeometry>
        </mxCell>
        <mxCell id="d3ICCTbF8nOoWMCPjpBj-42" value="&lt;font style=&quot;font-size: 6px;&quot;&gt;RX / TX&lt;/font&gt;" style="edgeLabel;html=1;align=center;verticalAlign=middle;resizable=0;points=[];" parent="d3ICCTbF8nOoWMCPjpBj-25" vertex="1" connectable="0">
          <mxGeometry x="0.3205" y="1" relative="1" as="geometry">
            <mxPoint as="offset" />
          </mxGeometry>
        </mxCell>
        <mxCell id="d3ICCTbF8nOoWMCPjpBj-26" value="Throtlle" style="whiteSpace=wrap;html=1;aspect=fixed;" parent="1" vertex="1">
          <mxGeometry x="277" y="489" width="45" height="45" as="geometry" />
        </mxCell>
        <mxCell id="d3ICCTbF8nOoWMCPjpBj-27" value="Keyboard and mouse" style="rounded=0;html=1;whiteSpace=wrap;direction=west;align=center;rotation=270;" parent="1" vertex="1">
          <mxGeometry x="238.29000000000002" y="664.18" width="122.45" height="42.1" as="geometry" />
        </mxCell>
        <mxCell id="d3ICCTbF8nOoWMCPjpBj-30" value="" style="endArrow=none;html=1;rounded=0;exitX=0.5;exitY=1;exitDx=0;exitDy=0;entryX=0;entryY=0.25;entryDx=0;entryDy=0;" parent="1" source="d3ICCTbF8nOoWMCPjpBj-26" target="d3ICCTbF8nOoWMCPjpBj-12" edge="1">
          <mxGeometry width="50" height="50" relative="1" as="geometry">
            <mxPoint x="408" y="644" as="sourcePoint" />
            <mxPoint x="458" y="594" as="targetPoint" />
            <Array as="points">
              <mxPoint x="300" y="562" />
            </Array>
          </mxGeometry>
        </mxCell>
        <mxCell id="d3ICCTbF8nOoWMCPjpBj-31" value="&lt;font style=&quot;font-size: 6px;&quot;&gt;RX / TX&lt;/font&gt;" style="edgeLabel;html=1;align=center;verticalAlign=middle;resizable=0;points=[];spacingTop=0;spacingLeft=0;" parent="d3ICCTbF8nOoWMCPjpBj-30" vertex="1" connectable="0">
          <mxGeometry x="0.2813" y="-1" relative="1" as="geometry">
            <mxPoint y="-2" as="offset" />
          </mxGeometry>
        </mxCell>
        <mxCell id="d3ICCTbF8nOoWMCPjpBj-33" value="" style="endArrow=none;html=1;rounded=0;exitX=0;exitY=0.5;exitDx=0;exitDy=0;entryX=1.004;entryY=0.579;entryDx=0;entryDy=0;entryPerimeter=0;" parent="1" source="d3ICCTbF8nOoWMCPjpBj-27" target="d3ICCTbF8nOoWMCPjpBj-11" edge="1">
          <mxGeometry width="50" height="50" relative="1" as="geometry">
            <mxPoint x="225" y="630" as="sourcePoint" />
            <mxPoint x="275" y="580" as="targetPoint" />
            <Array as="points">
              <mxPoint x="299" y="599" />
            </Array>
          </mxGeometry>
        </mxCell>
        <mxCell id="d3ICCTbF8nOoWMCPjpBj-34" value="&lt;font style=&quot;font-size: 6px;&quot;&gt;USB&lt;/font&gt;" style="edgeLabel;html=1;align=center;verticalAlign=middle;resizable=0;points=[];" parent="d3ICCTbF8nOoWMCPjpBj-33" vertex="1" connectable="0">
          <mxGeometry x="0.2505" relative="1" as="geometry">
            <mxPoint y="-1" as="offset" />
          </mxGeometry>
        </mxCell>
        <mxCell id="d3ICCTbF8nOoWMCPjpBj-36" value="Console Controle" style="rounded=0;whiteSpace=wrap;html=1;" parent="1" vertex="1">
          <mxGeometry x="58" y="24" width="122" height="33" as="geometry" />
        </mxCell>
        <mxCell id="d3ICCTbF8nOoWMCPjpBj-37" value="Main Engine" style="rounded=0;whiteSpace=wrap;html=1;" parent="1" vertex="1">
          <mxGeometry x="402" y="24" width="122" height="33" as="geometry" />
        </mxCell>
        <mxCell id="d3ICCTbF8nOoWMCPjpBj-38" value="Auxiliary Engine" style="rounded=0;whiteSpace=wrap;html=1;" parent="1" vertex="1">
          <mxGeometry x="402" y="1101" width="122" height="33" as="geometry" />
        </mxCell>
        <mxCell id="d3ICCTbF8nOoWMCPjpBj-39" value="" style="endArrow=none;dashed=1;html=1;rounded=0;entryX=0.75;entryY=0;entryDx=0;entryDy=0;exitX=0.75;exitY=1;exitDx=0;exitDy=0;" parent="1" edge="1">
          <mxGeometry width="50" height="50" relative="1" as="geometry">
            <mxPoint x="580.5" y="1134" as="sourcePoint" />
            <mxPoint x="580.5" y="24" as="targetPoint" />
          </mxGeometry>
        </mxCell>
        <mxCell id="d3ICCTbF8nOoWMCPjpBj-40" value="PEM" style="rounded=0;whiteSpace=wrap;html=1;" parent="1" vertex="1">
          <mxGeometry x="646" y="24" width="122" height="33" as="geometry" />
        </mxCell>
        <mxCell id="d3ICCTbF8nOoWMCPjpBj-43" value="Motor Driver Controle" style="whiteSpace=wrap;html=1;aspect=fixed;" parent="1" vertex="1">
          <mxGeometry x="378" y="334" width="50" height="50" as="geometry" />
        </mxCell>
        <mxCell id="d3ICCTbF8nOoWMCPjpBj-44" value="Lamp Driver Controle" style="whiteSpace=wrap;html=1;aspect=fixed;" parent="1" vertex="1">
          <mxGeometry x="498" y="334" width="50" height="50" as="geometry" />
        </mxCell>
        <mxCell id="d3ICCTbF8nOoWMCPjpBj-45" value="Sensors" style="ellipse;whiteSpace=wrap;html=1;aspect=fixed;" parent="1" vertex="1">
          <mxGeometry x="433" y="246" width="60" height="60" as="geometry" />
        </mxCell>
        <mxCell id="d3ICCTbF8nOoWMCPjpBj-46" value="" style="endArrow=none;html=1;rounded=0;entryX=0.5;entryY=1;entryDx=0;entryDy=0;" parent="1" source="d3ICCTbF8nOoWMCPjpBj-15" target="d3ICCTbF8nOoWMCPjpBj-45" edge="1">
          <mxGeometry width="50" height="50" relative="1" as="geometry">
            <mxPoint x="528" y="344" as="sourcePoint" />
            <mxPoint x="578" y="294" as="targetPoint" />
          </mxGeometry>
        </mxCell>
        <mxCell id="d3ICCTbF8nOoWMCPjpBj-47" value="" style="endArrow=none;html=1;rounded=0;exitX=0.5;exitY=1;exitDx=0;exitDy=0;entryX=0;entryY=0.5;entryDx=0;entryDy=0;" parent="1" source="d3ICCTbF8nOoWMCPjpBj-43" target="d3ICCTbF8nOoWMCPjpBj-15" edge="1">
          <mxGeometry width="50" height="50" relative="1" as="geometry">
            <mxPoint x="528" y="414" as="sourcePoint" />
            <mxPoint x="578" y="364" as="targetPoint" />
            <Array as="points">
              <mxPoint x="403" y="448" />
            </Array>
          </mxGeometry>
        </mxCell>
        <mxCell id="d3ICCTbF8nOoWMCPjpBj-48" value="" style="endArrow=none;html=1;rounded=0;entryX=0.5;entryY=1;entryDx=0;entryDy=0;exitX=1;exitY=0.5;exitDx=0;exitDy=0;" parent="1" source="d3ICCTbF8nOoWMCPjpBj-15" target="d3ICCTbF8nOoWMCPjpBj-44" edge="1">
          <mxGeometry width="50" height="50" relative="1" as="geometry">
            <mxPoint x="468" y="434" as="sourcePoint" />
            <mxPoint x="518" y="384" as="targetPoint" />
            <Array as="points">
              <mxPoint x="523" y="448" />
            </Array>
          </mxGeometry>
        </mxCell>
        <mxCell id="d3ICCTbF8nOoWMCPjpBj-50" value="Motor" style="rounded=1;whiteSpace=wrap;html=1;strokeWidth=2;fillWeight=4;hachureGap=8;hachureAngle=45;fillColor=#1ba1e2;sketch=1;" parent="1" vertex="1">
          <mxGeometry x="428" y="121" width="70" height="40" as="geometry" />
        </mxCell>
        <mxCell id="d3ICCTbF8nOoWMCPjpBj-52" value="" style="endArrow=none;html=1;rounded=0;exitX=0.5;exitY=0;exitDx=0;exitDy=0;entryX=0;entryY=0.5;entryDx=0;entryDy=0;" parent="1" source="d3ICCTbF8nOoWMCPjpBj-43" target="d3ICCTbF8nOoWMCPjpBj-50" edge="1">
          <mxGeometry width="50" height="50" relative="1" as="geometry">
            <mxPoint x="538" y="264" as="sourcePoint" />
            <mxPoint x="588" y="214" as="targetPoint" />
            <Array as="points">
              <mxPoint x="403" y="141" />
            </Array>
          </mxGeometry>
        </mxCell>
        <mxCell id="d3ICCTbF8nOoWMCPjpBj-53" value="Alarm Identifier" style="rounded=1;whiteSpace=wrap;html=1;" parent="1" vertex="1">
          <mxGeometry x="488" y="184" width="70" height="40" as="geometry" />
        </mxCell>
        <mxCell id="d3ICCTbF8nOoWMCPjpBj-54" value="" style="endArrow=none;html=1;rounded=0;entryX=0.5;entryY=1;entryDx=0;entryDy=0;exitX=0.5;exitY=0;exitDx=0;exitDy=0;" parent="1" source="d3ICCTbF8nOoWMCPjpBj-44" target="d3ICCTbF8nOoWMCPjpBj-53" edge="1">
          <mxGeometry width="50" height="50" relative="1" as="geometry">
            <mxPoint x="558" y="304" as="sourcePoint" />
            <mxPoint x="608" y="254" as="targetPoint" />
          </mxGeometry>
        </mxCell>
        <mxCell id="d3ICCTbF8nOoWMCPjpBj-55" value="Sensors" style="ellipse;whiteSpace=wrap;html=1;aspect=fixed;" parent="1" vertex="1">
          <mxGeometry x="433" y="852" width="60" height="60" as="geometry" />
        </mxCell>
        <mxCell id="d3ICCTbF8nOoWMCPjpBj-56" value="" style="endArrow=none;html=1;rounded=0;entryX=0.5;entryY=1;entryDx=0;entryDy=0;exitX=0.5;exitY=0;exitDx=0;exitDy=0;" parent="1" source="d3ICCTbF8nOoWMCPjpBj-55" target="d3ICCTbF8nOoWMCPjpBj-16" edge="1">
          <mxGeometry width="50" height="50" relative="1" as="geometry">
            <mxPoint x="462.38" y="852" as="sourcePoint" />
            <mxPoint x="462.38" y="745" as="targetPoint" />
          </mxGeometry>
        </mxCell>
        <mxCell id="d3ICCTbF8nOoWMCPjpBj-57" value="Motor Driver Controle" style="whiteSpace=wrap;html=1;aspect=fixed;" parent="1" vertex="1">
          <mxGeometry x="378" y="770" width="50" height="50" as="geometry" />
        </mxCell>
        <mxCell id="d3ICCTbF8nOoWMCPjpBj-58" value="Lamp Driver Controle" style="whiteSpace=wrap;html=1;aspect=fixed;" parent="1" vertex="1">
          <mxGeometry x="498" y="770" width="50" height="50" as="geometry" />
        </mxCell>
        <mxCell id="d3ICCTbF8nOoWMCPjpBj-59" value="" style="endArrow=none;html=1;rounded=0;entryX=0;entryY=0.5;entryDx=0;entryDy=0;exitX=0.5;exitY=0;exitDx=0;exitDy=0;" parent="1" source="d3ICCTbF8nOoWMCPjpBj-57" target="d3ICCTbF8nOoWMCPjpBj-16" edge="1">
          <mxGeometry width="50" height="50" relative="1" as="geometry">
            <mxPoint x="518" y="774" as="sourcePoint" />
            <mxPoint x="568" y="724" as="targetPoint" />
            <Array as="points">
              <mxPoint x="403" y="710" />
            </Array>
          </mxGeometry>
        </mxCell>
        <mxCell id="d3ICCTbF8nOoWMCPjpBj-60" value="" style="endArrow=none;html=1;rounded=0;entryX=1;entryY=0.5;entryDx=0;entryDy=0;exitX=0.5;exitY=0;exitDx=0;exitDy=0;" parent="1" source="d3ICCTbF8nOoWMCPjpBj-58" target="d3ICCTbF8nOoWMCPjpBj-16" edge="1">
          <mxGeometry width="50" height="50" relative="1" as="geometry">
            <mxPoint x="438" y="744" as="sourcePoint" />
            <mxPoint x="488" y="694" as="targetPoint" />
            <Array as="points">
              <mxPoint x="523" y="710" />
            </Array>
          </mxGeometry>
        </mxCell>
        <mxCell id="d3ICCTbF8nOoWMCPjpBj-61" value="Motor" style="rounded=1;whiteSpace=wrap;html=1;strokeWidth=2;fillWeight=4;hachureGap=8;hachureAngle=45;fillColor=#1ba1e2;sketch=1;" parent="1" vertex="1">
          <mxGeometry x="428" y="995" width="70" height="40" as="geometry" />
        </mxCell>
        <mxCell id="d3ICCTbF8nOoWMCPjpBj-62" value="Alarm Identifier" style="rounded=1;whiteSpace=wrap;html=1;" parent="1" vertex="1">
          <mxGeometry x="488" y="934" width="70" height="40" as="geometry" />
        </mxCell>
        <mxCell id="d3ICCTbF8nOoWMCPjpBj-63" value="" style="endArrow=none;html=1;rounded=0;exitX=0;exitY=0.5;exitDx=0;exitDy=0;entryX=0.5;entryY=1;entryDx=0;entryDy=0;" parent="1" source="d3ICCTbF8nOoWMCPjpBj-61" target="d3ICCTbF8nOoWMCPjpBj-57" edge="1">
          <mxGeometry width="50" height="50" relative="1" as="geometry">
            <mxPoint x="578" y="914" as="sourcePoint" />
            <mxPoint x="628" y="864" as="targetPoint" />
            <Array as="points">
              <mxPoint x="403" y="1015" />
            </Array>
          </mxGeometry>
        </mxCell>
        <mxCell id="d3ICCTbF8nOoWMCPjpBj-64" value="" style="endArrow=none;html=1;rounded=0;entryX=0.5;entryY=1;entryDx=0;entryDy=0;exitX=0.5;exitY=0;exitDx=0;exitDy=0;" parent="1" source="d3ICCTbF8nOoWMCPjpBj-62" target="d3ICCTbF8nOoWMCPjpBj-58" edge="1">
          <mxGeometry width="50" height="50" relative="1" as="geometry">
            <mxPoint x="548" y="934" as="sourcePoint" />
            <mxPoint x="598" y="884" as="targetPoint" />
          </mxGeometry>
        </mxCell>
        <mxCell id="d3ICCTbF8nOoWMCPjpBj-65" value="Slave Controller" style="whiteSpace=wrap;html=1;aspect=fixed;" parent="1" vertex="1">
          <mxGeometry x="609" y="544" width="70" height="70" as="geometry" />
        </mxCell>
        <mxCell id="d3ICCTbF8nOoWMCPjpBj-66" value="" style="endArrow=none;html=1;rounded=0;exitX=1;exitY=0.5;exitDx=0;exitDy=0;entryX=0;entryY=0.5;entryDx=0;entryDy=0;" parent="1" source="d3ICCTbF8nOoWMCPjpBj-12" target="d3ICCTbF8nOoWMCPjpBj-65" edge="1">
          <mxGeometry width="50" height="50" relative="1" as="geometry">
            <mxPoint x="878" y="704" as="sourcePoint" />
            <mxPoint x="928" y="654" as="targetPoint" />
          </mxGeometry>
        </mxCell>
        <mxCell id="d3ICCTbF8nOoWMCPjpBj-67" value="Motor Driver Controle" style="whiteSpace=wrap;html=1;aspect=fixed;" parent="1" vertex="1">
          <mxGeometry x="698" y="554" width="50" height="50" as="geometry" />
        </mxCell>
        <mxCell id="d3ICCTbF8nOoWMCPjpBj-68" value="Motor" style="rounded=1;whiteSpace=wrap;html=1;strokeWidth=2;fillWeight=4;hachureGap=8;hachureAngle=45;fillColor=#1ba1e2;sketch=1;" parent="1" vertex="1">
          <mxGeometry x="628" y="794" width="70" height="40" as="geometry" />
        </mxCell>
        <mxCell id="d3ICCTbF8nOoWMCPjpBj-69" value="" style="endArrow=none;html=1;rounded=0;entryX=1;entryY=0.5;entryDx=0;entryDy=0;" parent="1" source="d3ICCTbF8nOoWMCPjpBj-67" target="d3ICCTbF8nOoWMCPjpBj-65" edge="1">
          <mxGeometry width="50" height="50" relative="1" as="geometry">
            <mxPoint x="638" y="704" as="sourcePoint" />
            <mxPoint x="688" y="654" as="targetPoint" />
          </mxGeometry>
        </mxCell>
        <mxCell id="d3ICCTbF8nOoWMCPjpBj-70" value="" style="endArrow=none;html=1;rounded=0;entryX=0.5;entryY=1;entryDx=0;entryDy=0;exitX=0.5;exitY=0;exitDx=0;exitDy=0;" parent="1" source="d3ICCTbF8nOoWMCPjpBj-68" target="d3ICCTbF8nOoWMCPjpBj-78" edge="1">
          <mxGeometry width="50" height="50" relative="1" as="geometry">
            <mxPoint x="680.58" y="786" as="sourcePoint" />
            <mxPoint x="680.58" y="725" as="targetPoint" />
            <Array as="points">
              <mxPoint x="663" y="764" />
              <mxPoint x="644" y="764" />
            </Array>
          </mxGeometry>
        </mxCell>
        <mxCell id="d3ICCTbF8nOoWMCPjpBj-71" value="Lamp Driver Controle" style="whiteSpace=wrap;html=1;aspect=fixed;" parent="1" vertex="1">
          <mxGeometry x="619" y="433" width="50" height="50" as="geometry" />
        </mxCell>
        <mxCell id="d3ICCTbF8nOoWMCPjpBj-72" value="Alarm Identifier" style="rounded=1;whiteSpace=wrap;html=1;" parent="1" vertex="1">
          <mxGeometry x="609" y="314" width="70" height="40" as="geometry" />
        </mxCell>
        <mxCell id="d3ICCTbF8nOoWMCPjpBj-73" value="" style="endArrow=none;html=1;rounded=0;exitX=0.5;exitY=1;exitDx=0;exitDy=0;entryX=0.5;entryY=0;entryDx=0;entryDy=0;" parent="1" source="d3ICCTbF8nOoWMCPjpBj-71" target="d3ICCTbF8nOoWMCPjpBj-65" edge="1">
          <mxGeometry width="50" height="50" relative="1" as="geometry">
            <mxPoint x="638" y="464" as="sourcePoint" />
            <mxPoint x="688" y="414" as="targetPoint" />
          </mxGeometry>
        </mxCell>
        <mxCell id="d3ICCTbF8nOoWMCPjpBj-74" value="" style="endArrow=none;html=1;rounded=0;exitX=0.5;exitY=1;exitDx=0;exitDy=0;entryX=0.5;entryY=0;entryDx=0;entryDy=0;" parent="1" source="d3ICCTbF8nOoWMCPjpBj-72" target="d3ICCTbF8nOoWMCPjpBj-71" edge="1">
          <mxGeometry width="50" height="50" relative="1" as="geometry">
            <mxPoint x="691" y="493" as="sourcePoint" />
            <mxPoint x="691" y="554" as="targetPoint" />
          </mxGeometry>
        </mxCell>
        <mxCell id="d3ICCTbF8nOoWMCPjpBj-75" value="Motor" style="rounded=1;whiteSpace=wrap;html=1;strokeWidth=2;fillWeight=4;hachureGap=8;hachureAngle=45;fillColor=#1ba1e2;sketch=1;" parent="1" vertex="1">
          <mxGeometry x="638" y="121" width="70" height="40" as="geometry" />
        </mxCell>
        <mxCell id="d3ICCTbF8nOoWMCPjpBj-76" value="" style="endArrow=none;html=1;rounded=0;entryX=0.5;entryY=1;entryDx=0;entryDy=0;exitX=0.5;exitY=0;exitDx=0;exitDy=0;" parent="1" source="d3ICCTbF8nOoWMCPjpBj-67" target="d3ICCTbF8nOoWMCPjpBj-75" edge="1">
          <mxGeometry width="50" height="50" relative="1" as="geometry">
            <mxPoint x="578" y="474" as="sourcePoint" />
            <mxPoint x="628" y="424" as="targetPoint" />
            <Array as="points">
              <mxPoint x="723" y="244" />
              <mxPoint x="673" y="244" />
            </Array>
          </mxGeometry>
        </mxCell>
        <mxCell id="d3ICCTbF8nOoWMCPjpBj-77" value="Gear Box" style="rounded=0;whiteSpace=wrap;html=1;" parent="1" vertex="1">
          <mxGeometry x="646" y="1101" width="122" height="33" as="geometry" />
        </mxCell>
        <mxCell id="d3ICCTbF8nOoWMCPjpBj-78" value="Motor Driver Controle" style="whiteSpace=wrap;html=1;aspect=fixed;" parent="1" vertex="1">
          <mxGeometry x="619" y="675" width="50" height="50" as="geometry" />
        </mxCell>
        <mxCell id="d3ICCTbF8nOoWMCPjpBj-79" value="" style="endArrow=none;html=1;rounded=0;exitX=0.5;exitY=0;exitDx=0;exitDy=0;entryX=0.5;entryY=1;entryDx=0;entryDy=0;" parent="1" source="d3ICCTbF8nOoWMCPjpBj-78" target="d3ICCTbF8nOoWMCPjpBj-65" edge="1">
          <mxGeometry width="50" height="50" relative="1" as="geometry">
            <mxPoint x="648" y="684" as="sourcePoint" />
            <mxPoint x="698" y="634" as="targetPoint" />
          </mxGeometry>
        </mxCell>
        <mxCell id="d3ICCTbF8nOoWMCPjpBj-81" value="Monitor Display for Control" style="whiteSpace=wrap;html=1;aspect=fixed;" parent="1" vertex="1">
          <mxGeometry x="172.75" y="324" width="80" height="80" as="geometry" />
        </mxCell>
        <mxCell id="d3ICCTbF8nOoWMCPjpBj-82" value="Monitor Display for Control" style="whiteSpace=wrap;html=1;aspect=fixed;" parent="1" vertex="1">
          <mxGeometry x="173" y="194" width="80" height="80" as="geometry" />
        </mxCell>
        <mxCell id="d3ICCTbF8nOoWMCPjpBj-83" value="Monitor Display for map location" style="whiteSpace=wrap;html=1;aspect=fixed;" parent="1" vertex="1">
          <mxGeometry x="75" y="539" width="80" height="80" as="geometry" />
        </mxCell>
        <mxCell id="d3ICCTbF8nOoWMCPjpBj-84" value="Monitor Display for Control" style="whiteSpace=wrap;html=1;aspect=fixed;" parent="1" vertex="1">
          <mxGeometry x="173" y="755" width="80" height="80" as="geometry" />
        </mxCell>
        <mxCell id="d3ICCTbF8nOoWMCPjpBj-85" value="Monitor Display for Control" style="whiteSpace=wrap;html=1;aspect=fixed;" parent="1" vertex="1">
          <mxGeometry x="173" y="884" width="80" height="80" as="geometry" />
        </mxCell>
        <mxCell id="d3ICCTbF8nOoWMCPjpBj-89" value="" style="group" parent="1" vertex="1" connectable="0">
          <mxGeometry x="178" y="454" width="70" height="250" as="geometry" />
        </mxCell>
        <mxCell id="d3ICCTbF8nOoWMCPjpBj-11" value="CPU" style="rounded=0;whiteSpace=wrap;html=1;" parent="d3ICCTbF8nOoWMCPjpBj-89" vertex="1">
          <mxGeometry width="70" height="250" as="geometry" />
        </mxCell>
        <mxCell id="d3ICCTbF8nOoWMCPjpBj-88" value="" style="group" parent="d3ICCTbF8nOoWMCPjpBj-89" vertex="1" connectable="0">
          <mxGeometry x="20" y="160" width="40" height="80" as="geometry" />
        </mxCell>
        <mxCell id="d3ICCTbF8nOoWMCPjpBj-17" value="" style="whiteSpace=wrap;html=1;aspect=fixed;" parent="d3ICCTbF8nOoWMCPjpBj-88" vertex="1">
          <mxGeometry x="10" y="60" width="20" height="20" as="geometry" />
        </mxCell>
        <mxCell id="d3ICCTbF8nOoWMCPjpBj-18" value="" style="ellipse;whiteSpace=wrap;html=1;aspect=fixed;" parent="d3ICCTbF8nOoWMCPjpBj-88" vertex="1">
          <mxGeometry x="14.5" y="69" width="2.5" height="2.5" as="geometry" />
        </mxCell>
        <mxCell id="d3ICCTbF8nOoWMCPjpBj-19" value="" style="ellipse;whiteSpace=wrap;html=1;aspect=fixed;" parent="d3ICCTbF8nOoWMCPjpBj-88" vertex="1">
          <mxGeometry x="23.5" y="69" width="2.5" height="2.5" as="geometry" />
        </mxCell>
        <mxCell id="d3ICCTbF8nOoWMCPjpBj-23" value="&lt;font style=&quot;font-size: 6px;&quot;&gt;Supplied by 220V AC&lt;/font&gt;" style="shape=offPageConnector;whiteSpace=wrap;html=1;" parent="d3ICCTbF8nOoWMCPjpBj-88" vertex="1">
          <mxGeometry width="40" height="60" as="geometry" />
        </mxCell>
        <mxCell id="d3ICCTbF8nOoWMCPjpBj-90" value="" style="endArrow=none;html=1;rounded=0;exitX=1;exitY=0.5;exitDx=0;exitDy=0;entryX=0;entryY=0.5;entryDx=0;entryDy=0;" parent="1" source="d3ICCTbF8nOoWMCPjpBj-83" target="d3ICCTbF8nOoWMCPjpBj-11" edge="1">
          <mxGeometry width="50" height="50" relative="1" as="geometry">
            <mxPoint x="328" y="672" as="sourcePoint" />
            <mxPoint x="378" y="622" as="targetPoint" />
          </mxGeometry>
        </mxCell>
        <mxCell id="d3ICCTbF8nOoWMCPjpBj-92" value="HDMI Splitter" style="rounded=1;whiteSpace=wrap;html=1;" parent="1" vertex="1">
          <mxGeometry x="69.5" y="285" width="88.5" height="26" as="geometry" />
        </mxCell>
        <mxCell id="d3ICCTbF8nOoWMCPjpBj-93" value="HDMI Splitter" style="rounded=1;whiteSpace=wrap;html=1;" parent="1" vertex="1">
          <mxGeometry x="70.75" y="847" width="88.5" height="26" as="geometry" />
        </mxCell>
        <mxCell id="d3ICCTbF8nOoWMCPjpBj-94" value="" style="endArrow=none;html=1;rounded=0;exitX=0.5;exitY=1;exitDx=0;exitDy=0;entryX=0;entryY=0.25;entryDx=0;entryDy=0;" parent="1" source="d3ICCTbF8nOoWMCPjpBj-92" target="d3ICCTbF8nOoWMCPjpBj-11" edge="1">
          <mxGeometry width="50" height="50" relative="1" as="geometry">
            <mxPoint x="387" y="397" as="sourcePoint" />
            <mxPoint x="437" y="347" as="targetPoint" />
            <Array as="points">
              <mxPoint x="114" y="517" />
            </Array>
          </mxGeometry>
        </mxCell>
        <mxCell id="d3ICCTbF8nOoWMCPjpBj-95" value="" style="endArrow=none;html=1;rounded=0;entryX=0;entryY=0.75;entryDx=0;entryDy=0;exitX=0.5;exitY=0;exitDx=0;exitDy=0;" parent="1" source="d3ICCTbF8nOoWMCPjpBj-93" target="d3ICCTbF8nOoWMCPjpBj-11" edge="1">
          <mxGeometry width="50" height="50" relative="1" as="geometry">
            <mxPoint x="287" y="713" as="sourcePoint" />
            <mxPoint x="337" y="663" as="targetPoint" />
            <Array as="points">
              <mxPoint x="116" y="642" />
            </Array>
          </mxGeometry>
        </mxCell>
        <mxCell id="d3ICCTbF8nOoWMCPjpBj-96" value="" style="endArrow=none;html=1;rounded=0;exitX=1;exitY=0.5;exitDx=0;exitDy=0;entryX=0.5;entryY=0;entryDx=0;entryDy=0;" parent="1" source="d3ICCTbF8nOoWMCPjpBj-93" target="d3ICCTbF8nOoWMCPjpBj-85" edge="1">
          <mxGeometry width="50" height="50" relative="1" as="geometry">
            <mxPoint x="233" y="845" as="sourcePoint" />
            <mxPoint x="283" y="795" as="targetPoint" />
            <Array as="points">
              <mxPoint x="213" y="860" />
            </Array>
          </mxGeometry>
        </mxCell>
        <mxCell id="d3ICCTbF8nOoWMCPjpBj-97" value="" style="endArrow=none;html=1;rounded=0;exitX=1;exitY=0.5;exitDx=0;exitDy=0;entryX=0.5;entryY=1;entryDx=0;entryDy=0;" parent="1" source="d3ICCTbF8nOoWMCPjpBj-93" target="d3ICCTbF8nOoWMCPjpBj-84" edge="1">
          <mxGeometry width="50" height="50" relative="1" as="geometry">
            <mxPoint x="208" y="874" as="sourcePoint" />
            <mxPoint x="258" y="824" as="targetPoint" />
            <Array as="points">
              <mxPoint x="213" y="860" />
            </Array>
          </mxGeometry>
        </mxCell>
        <mxCell id="d3ICCTbF8nOoWMCPjpBj-98" value="" style="endArrow=none;html=1;rounded=0;exitX=1;exitY=0.5;exitDx=0;exitDy=0;entryX=0.5;entryY=1;entryDx=0;entryDy=0;" parent="1" source="d3ICCTbF8nOoWMCPjpBj-92" target="d3ICCTbF8nOoWMCPjpBj-82" edge="1">
          <mxGeometry width="50" height="50" relative="1" as="geometry">
            <mxPoint x="200" y="394" as="sourcePoint" />
            <mxPoint x="250" y="344" as="targetPoint" />
            <Array as="points">
              <mxPoint x="213" y="298" />
            </Array>
          </mxGeometry>
        </mxCell>
        <mxCell id="d3ICCTbF8nOoWMCPjpBj-99" value="" style="endArrow=none;html=1;rounded=0;exitX=1;exitY=0.5;exitDx=0;exitDy=0;entryX=0.5;entryY=0;entryDx=0;entryDy=0;" parent="1" source="d3ICCTbF8nOoWMCPjpBj-92" target="d3ICCTbF8nOoWMCPjpBj-81" edge="1">
          <mxGeometry width="50" height="50" relative="1" as="geometry">
            <mxPoint x="196" y="364" as="sourcePoint" />
            <mxPoint x="246" y="314" as="targetPoint" />
            <Array as="points">
              <mxPoint x="213" y="298" />
            </Array>
          </mxGeometry>
        </mxCell>
        <mxCell id="tNhVOZxFXTZ1Ly7ThZuJ-1" value="HMI 7 &quot;" style="rounded=0;whiteSpace=wrap;html=1;" vertex="1" parent="1">
          <mxGeometry x="510" y="497" width="53" height="29" as="geometry" />
        </mxCell>
        <mxCell id="tNhVOZxFXTZ1Ly7ThZuJ-2" value="" style="endArrow=none;html=1;rounded=0;exitX=1;exitY=0.5;exitDx=0;exitDy=0;entryX=0.5;entryY=0;entryDx=0;entryDy=0;" edge="1" parent="1" source="d3ICCTbF8nOoWMCPjpBj-15" target="tNhVOZxFXTZ1Ly7ThZuJ-1">
          <mxGeometry width="50" height="50" relative="1" as="geometry">
            <mxPoint x="546" y="569" as="sourcePoint" />
            <mxPoint x="596" y="519" as="targetPoint" />
            <Array as="points">
              <mxPoint x="537" y="448" />
            </Array>
          </mxGeometry>
        </mxCell>
        <mxCell id="tNhVOZxFXTZ1Ly7ThZuJ-3" value="HMI 4.3 &quot;" style="rounded=0;whiteSpace=wrap;html=1;" vertex="1" parent="1">
          <mxGeometry x="510" y="629" width="53" height="29" as="geometry" />
        </mxCell>
        <mxCell id="tNhVOZxFXTZ1Ly7ThZuJ-5" value="" style="endArrow=none;html=1;rounded=0;exitX=1;exitY=0.5;exitDx=0;exitDy=0;entryX=0.5;entryY=1;entryDx=0;entryDy=0;" edge="1" parent="1" source="d3ICCTbF8nOoWMCPjpBj-16" target="tNhVOZxFXTZ1Ly7ThZuJ-3">
          <mxGeometry width="50" height="50" relative="1" as="geometry">
            <mxPoint x="522" y="723" as="sourcePoint" />
            <mxPoint x="572" y="673" as="targetPoint" />
            <Array as="points">
              <mxPoint x="537" y="710" />
            </Array>
          </mxGeometry>
        </mxCell>
      </root>
    </mxGraphModel>
  </diagram>
</mxfile>
